<svg viewBox="0 0 170 26" xmlns="http://www.w3.org/2000/svg">
    <g stroke-width="2.7" stroke="currentColor" fill="none" fill-rule="evenodd">
        <path
            d="M68.53 16.625c4.331 0 6.497-6.497 11.55-6.497 5.053 0 5.775 6.497 11.55 6.497s7.219-6.497 11.55-6.497M0 16.625c4.331 0 6.497-6.497 11.55-6.497 5.053 0 5.775 6.497 11.55 6.497s7.219-6.497 11.55-6.497">
        </path>
        <path
            d="M137.06 15.525c4.331 0 6.497-4.297 11.55-4.297 5.053 0 5.39 3.972 10.89 2.872 3.667-.733 6.233-1.1 7.7-1.1"
            stroke-linecap="round"></path>
        <path
            d="M33.88 10.128c4.331 0 6.497 6.497 11.55 6.497 5.053 0 5.775-6.497 11.55-6.497s7.219 6.497 11.55 6.497M103.18 10.128c4.331 0 6.497 6.497 11.55 6.497 5.053 0 5.775-6.497 11.55-6.497s7.219 5.397 11.55 5.397">
        </path>
        <path d="M168.339 13.229L157.14 2.03M168.3 13.465l-11.16 11.16" stroke-linecap="round"></path>
    </g>
</svg>