<svg id="Layer_1" enable-background="new 0 0 512 512" height="512" viewBox="0 0 512 512" width="512" xmlns="http://www.w3.org/2000/svg"><g><g><g><g id="XMLID_1095_"><g id="XMLID_1096_"><g id="XMLID_1097_"><g id="XMLID_1098_"><g id="XMLID_1099_"><g id="XMLID_1100_"><g id="XMLID_1101_"><g id="XMLID_1138_"><g id="XMLID_1139_"><g id="XMLID_1140_"><g id="XMLID_1141_"><g id="XMLID_1142_"><g id="XMLID_1143_"><g id="XMLID_1144_"><g id="XMLID_1145_"><circle cx="256" cy="256" fill="#494949" r="256"/></g></g></g></g></g></g></g></g></g></g></g></g></g></g></g></g></g><path d="m512 256c0-1.576-.031-3.144-.06-4.712l-52.885-52.885-11.632 12.975-164.098-163.793-48.661 48.644 19.659 19.932-52.135 117.832-79.201-79.361-40.507 264.719 71.487 71.487c31.264 13.603 65.763 21.162 102.033 21.162 141.385 0 256-114.615 256-256z" fill="#2d2d2d"/><g><g><path d="m82.48 338.62h347.04v80.731h-347.04z" fill="#fff"/><path d="m256 338.62h173.52v80.73h-173.52z" fill="#f1f4f6"/><g><path d="m200.076 237.233-77.089-82.601-39.5 92.797 85.921 38.933z" fill="#ecbe00"/><path d="m303.996 237.233 77.089-82.601 39.501 92.797-85.922 38.933z" fill="#ff9d21"/><path d="m367.981 250.948-111.981-176.948-111.981 176.948-91.075-52.545 29.536 154.138h347.04l29.536-154.138z" fill="#ffdd54"/><path d="m459.06 198.4-29.54 154.14h-173.52v-278.54l16.19 25.59 95.79 151.36z" fill="#ecbe00"/></g><ellipse cx="256" cy="68.922" fill="#00e4ef" rx="34.677" ry="34.677" transform="matrix(.162 -.987 .987 .162 146.621 310.423)"/><path d="m290.68 68.92c0 13.3-7.49 24.86-18.49 30.67-4.83 2.56-10.34 4.01-16.19 4.01v-69.35c19.15 0 34.68 15.52 34.68 34.67z" fill="#5ecbf1"/></g><path d="m256 210.736-40.5 48.722 40.5 48.722 40.5-48.722z" fill="#ff4d05"/><path d="m296.5 259.46-40.5 48.72v-97.44z" fill="#c30047"/></g></g></svg>