<svg id="Layer_1" enable-background="new 0 0 512 512" height="512" viewBox="0 0 512 512" width="512" xmlns="http://www.w3.org/2000/svg"><g><g><path d="m512 256c0 26.233-3.987 51.535-11.389 75.333-9.436 30.336-24.42 58.228-43.765 82.489-46.417 58.208-120.609 76.821-200.846 76.821-139.911 0-234.349-93.465-234.349-233.376 0-78.7 19.573-150.285 75.875-196.75 43.791-36.139 99.931-57.849 161.142-57.849 139.912 0 253.332 113.421 253.332 253.332z" fill="#f8e000"/></g><path d="m492.292 275.135v-108.42c0-16.558-13.423-29.981-29.981-29.981h-3.348l-158.916-38.484c-.002-.001-.004-.001-.006-.001-8.738-2.115-17.854-2.115-26.591.001l-95.625 23.157c-20.093 4.866-38.127-13.687-32.499-33.581.113-.401.228-.802.343-1.202 7.516-26.071-22.584-46.351-43.878-29.536-58.747 46.39-96.454 118.245-96.454 198.912 0 32.155 6.005 62.904 16.931 91.206 2.457 5.351 11.504 31.837 35.31 62.862 0 .001.001.001.001.002 46.305 60.346 119.147 99.262 201.089 99.262 80.237 0 151.759-37.303 198.175-95.512 4.074-5.109-.69-12.43-7.035-10.871-.157.039-.314.077-.471.115-6.028 1.469-10.668-5.267-7.245-10.442 2.852-4.312 4.871-9.238 5.819-14.56 4.217-23.755-14.015-45.673-38.228-45.673 40.714-.613 46.02 1.505 56.556-2.229v30.303h23.286c3.473-7.662 6.573-15.528 9.282-23.574v-48.747c0-5.323-2.566-10.035-6.515-13.007zm-276.457-20.425s-11.365.009-24.282.015c-23.182.01-43.365-15.868-48.781-38.408-4.071-16.946-6.439-34.554-6.91-52.636l79.973 25.73zm256.916 5.249c-5.73-3.332-12.384-5.249-19.489-5.249h-67.025c-15.781 0-28.573-12.793-28.573-28.573v-22.178-14.549l14.339-4.613h.001l62.966-20.258 14.323-4.608 10.465-3.367c.271-.087.531-.186.786-.289h1.769c5.765 0 10.438 4.673 10.438 10.438z" fill="#ffc305"/><g><g><g><path d="m421.708 408.791c2.899-5.439 4.547-11.645 4.547-18.238 0-21.451-17.389-38.84-38.84-38.84h-292.594v57.078z" fill="#2896ff"/><path d="m424.149 377.941c-5.238 15.257-19.7 26.228-36.734 26.228h-240.588c-7.393 0-13.194-6.079-13.167-13.472 0-.048 0-.096 0-.144 0-21.451-17.389-38.84-38.84-38.84h-71.156v77.68h28.633 42.523 292.594c21.451 0 38.84-17.389 38.84-38.84.001-4.417-.747-8.656-2.105-12.612z" fill="#2d56a1"/><path d="m0 429.393h71.156c21.451 0 38.84-17.389 38.84-38.84 0-21.451-17.389-38.84-38.84-38.84h-71.156v11.46l9.691 39.929-9.691 14.831z" fill="#6ee1ff"/><path d="m0 417.933h66.043c15.121 0 27.38-12.258 27.38-27.38 0-15.121-12.258-27.38-27.38-27.38h-66.043z" fill="#fff"/></g><path d="m143.672 328.33h322.956c2.058-4.738 3.206-9.962 3.206-15.457 0-21.451-17.389-38.84-38.84-38.84h-287.325c0 .019.003.037.003.056z" fill="#82cd64"/><path d="m469.833 312.721c-.019-4.876-6.165-6.952-9.336-3.248-7.12 8.319-17.694 13.593-29.504 13.593h-242.648c-5.536 0-9.876-4.552-9.861-10.088 0-.035 0-.071 0-.106 0-21.451-17.389-38.84-38.84-38.84h-71.156v77.68h21.802 49.355 291.349c21.451 0 38.84-17.389 38.84-38.84-.001-.049-.001-.1-.001-.151z" fill="#20b7a1"/><path d="m43.578 351.713h71.156c21.451 0 38.84-17.389 38.84-38.84 0-21.451-17.389-38.84-38.84-38.84h-71.156v11.46l13.478 36.833-13.478 17.926z" fill="#82cd64"/><path d="m43.578 340.253h66.043c15.121 0 27.38-12.258 27.38-27.38 0-15.121-12.258-27.38-27.38-27.38h-66.043z" fill="#fff"/></g><g><g><path d="m247.53 147.289v144.31l16.951 4.672 70.914-19.541v-129.441z" fill="#1a396b"/></g><g><path d="m349.735 204.121 87.754-28.233c9.9-3.185 9.378-17.367-.73-19.815l-158.98-38.499c-8.739-2.116-63.373 22.407-63.373 22.407v64.139h135.329z" fill="#2d56a1"/></g><path d="m193.567 196.749v79.98l56.686 15.62v-9.943c0-19.309 12.812-35.972 31.226-41.78.103-.032.205-.065.307-.098l53.609-17.248v-26.532h-141.828z" fill="#033ad6"/><path d="m444.515 164.692c-1.463-.22-2.948-.371-4.471-.371h-175.563c-.667 0-1.318.067-1.948.195-6.868 1.392-13.932 1.508-20.603-.638l-13.289-4.275c-9.9-3.185-9.378-17.367.731-19.815l48.407-11.722c5.503-1.333 5.503-9.159 0-10.492-8.739-2.116-17.858-2.116-26.597 0l-158.98 38.499c-10.108 2.448-10.631 16.629-.73 19.815l155.703 50.094c11.253 3.621 23.357 3.621 34.61 0l76.588-24.641c-9.721-3.128-7.47-17.479 2.742-17.479h51.585l24.788-7.975c5.347-1.72 7.627-6.642 7.027-11.195z" fill="#1a396b"/><g><path d="m460.253 330.432c-5.396 0-9.771-4.375-9.771-9.771v-134.623c0-5.757-4.683-10.44-10.438-10.44h-175.563c-5.396 0-9.771-4.375-9.771-9.771s4.375-9.771 9.771-9.771h175.563c16.531 0 29.98 13.449 29.98 29.981v134.623c0 5.397-4.375 9.772-9.771 9.772z" fill="#ff8500"/></g><g><path d="m328.288 156.057h-63.396c-5.35 0-10.015 4.122-10.176 9.469-.167 5.533 4.27 10.072 9.766 10.072h63.806c5.396 0 9.771-4.374 9.771-9.771-.001-5.395-4.375-9.77-9.771-9.77z" fill="#fa690f"/></g><g><path d="m460.255 291.18c-8.993 0-16.284 7.291-16.284 16.284v72.322h32.569v-72.322c-.001-8.992-7.293-16.284-16.285-16.284z" fill="#faf58c"/></g></g></g></g></svg>