<svg width="2146" height="540" viewBox="0 0 2146 540" fill="none" xmlns="http://www.w3.org/2000/svg">
<path d="M256 540C397.385 540 512 425.385 512 284C512 142.615 397.385 28 256 28C114.615 28 0 142.615 0 284C0 425.385 114.615 540 256 540Z" fill="#494949"/>
<path d="M512 284C512 282.424 511.969 280.856 511.94 279.288L459.055 226.403L447.423 239.378L283.325 75.585L234.664 124.229L254.323 144.161L202.188 261.993L122.987 182.632L82.48 447.351L153.967 518.838C185.231 532.441 219.73 540 256 540C397.385 540 512 425.385 512 284Z" fill="#2D2D2D"/>
<path d="M82.48 366.62H429.52V447.351H82.48V366.62Z" fill="white"/>
<path d="M256 366.62H429.52V447.35H256V366.62Z" fill="#F1F4F6"/>
<path d="M200.076 265.233L122.987 182.632L83.4869 275.429L169.408 314.362L200.076 265.233Z" fill="#ECBE00"/>
<path d="M303.996 265.233L381.085 182.632L420.586 275.429L334.664 314.362L303.996 265.233Z" fill="#FF9D21"/>
<path d="M367.981 278.948L256 102L144.019 278.948L52.944 226.403L82.48 380.541H429.52L459.056 226.403L367.981 278.948Z" fill="#FFDD54"/>
<path d="M459.06 226.4L429.52 380.54H256V102L272.19 127.59L367.98 278.95L459.06 226.4Z" fill="#ECBE00"/>
<path d="M290.345 102.534C293.448 83.6314 280.639 65.7927 261.737 62.6902C242.834 59.5876 224.995 72.3961 221.893 91.2987C218.79 110.201 231.599 128.04 250.501 131.143C269.404 134.245 287.243 121.437 290.345 102.534Z" fill="#00E4EF"/>
<path d="M290.68 96.92C290.68 110.22 283.19 121.78 272.19 127.59C267.36 130.15 261.85 131.6 256 131.6V62.25C275.15 62.25 290.68 77.77 290.68 96.92Z" fill="#5ECBF1"/>
<path d="M256 238.736L215.5 287.458L256 336.18L296.5 287.458L256 238.736Z" fill="#FF4D05"/>
<path d="M296.5 287.46L256 336.18V238.74L296.5 287.46Z" fill="#C30047"/>
<path d="M731.75 417.5C710.15 417.5 690.2 412.7 671.9 403.1C653.6 393.5 638.9 379.7 627.8 361.7C617 343.7 611.6 322.55 611.6 298.25C611.6 273.95 617 252.8 627.8 234.8C638.9 216.8 653.6 203 671.9 193.4C690.2 183.8 710.15 179 731.75 179C747.65 179 761.3 181.1 772.7 185.3C784.4 189.2 795.2 194.3 805.1 200.6C811.1 204.5 814.1 209.75 814.1 216.35C814.1 220.85 812.3 225.05 808.7 228.95C805.4 232.55 801.5 234.35 797 234.35C793.7 234.35 790.4 233.45 787.1 231.65C777.2 226.55 768.65 222.95 761.45 220.85C754.55 218.45 745.85 217.25 735.35 217.25C709.55 217.25 689.3 224.75 674.6 239.75C659.9 254.45 652.55 273.95 652.55 298.25C652.55 322.55 659.9 342.2 674.6 357.2C689.3 371.9 709.55 379.25 735.35 379.25C745.85 379.25 754.55 378.2 761.45 376.1C768.65 373.7 777.2 369.95 787.1 364.85C790.4 363.05 793.7 362.15 797 362.15C801.5 362.15 805.4 364.1 808.7 368C812.3 371.6 814.1 375.65 814.1 380.15C814.1 386.75 811.1 392 805.1 395.9C795.2 402.2 784.4 407.45 772.7 411.65C761.3 415.55 747.65 417.5 731.75 417.5ZM885.741 415.25C880.041 415.25 875.241 413.3 871.341 409.4C867.441 405.5 865.491 400.7 865.491 395V102.95C865.491 97.25 867.441 92.45 871.341 88.55C875.241 84.35 880.041 82.25 885.741 82.25C891.441 82.25 896.241 84.35 900.141 88.55C904.341 92.45 906.441 97.25 906.441 102.95V220.4C917.841 207.8 930.141 197.75 943.341 190.25C956.541 182.75 972.141 179 990.141 179C1006.64 179 1020.89 182.9 1032.89 190.7C1045.19 198.5 1054.49 209.15 1060.79 222.65C1067.39 236.15 1070.69 251 1070.69 267.2V395C1070.69 400.7 1068.59 405.5 1064.39 409.4C1060.49 413.3 1055.69 415.25 1049.99 415.25C1044.29 415.25 1039.49 413.3 1035.59 409.4C1031.69 405.5 1029.74 400.7 1029.74 395V271.7C1029.74 235.1 1013.24 216.8 980.241 216.8C965.241 216.8 951.741 220.7 939.741 228.5C928.041 236.3 916.941 246.8 906.441 260V395C906.441 400.7 904.341 405.5 900.141 409.4C896.241 413.3 891.441 415.25 885.741 415.25ZM1242.31 417.5C1205.71 417.5 1177.06 407.15 1156.36 386.45C1135.96 365.45 1125.76 336.05 1125.76 298.25C1125.76 276.95 1129.66 257.3 1137.46 239.3C1145.26 221.3 1157.26 206.75 1173.46 195.65C1189.66 184.55 1209.61 179 1233.31 179C1255.51 179 1274.71 184.25 1290.91 194.75C1307.11 204.95 1319.41 218.75 1327.81 236.15C1336.21 253.25 1340.41 272 1340.41 292.4C1340.41 298.1 1338.46 302.9 1334.56 306.8C1330.96 310.7 1326.01 312.65 1319.71 312.65H1167.16C1169.56 333.65 1177.36 350 1190.56 361.7C1203.76 373.4 1222.21 379.25 1245.91 379.25C1258.51 379.25 1269.46 378.05 1278.76 375.65C1288.36 373.25 1297.66 369.8 1306.66 365.3C1309.06 364.1 1311.76 363.5 1314.76 363.5C1319.56 363.5 1323.76 365.15 1327.36 368.45C1330.96 371.75 1332.76 375.95 1332.76 381.05C1332.76 387.65 1328.86 393.2 1321.06 397.7C1309.36 404.3 1297.81 409.25 1286.41 412.55C1275.01 415.85 1260.31 417.5 1242.31 417.5ZM1299.91 279.35C1299.01 264.65 1295.11 252.35 1288.21 242.45C1281.61 232.55 1273.36 225.35 1263.46 220.85C1253.56 216.05 1243.51 213.65 1233.31 213.65C1223.11 213.65 1213.06 216.05 1203.16 220.85C1193.26 225.35 1185.01 232.55 1178.41 242.45C1171.81 252.35 1168.06 264.65 1167.16 279.35H1299.91ZM1468.84 417.5C1438.84 417.5 1411.54 410.75 1386.94 397.25C1381.84 393.65 1379.29 388.7 1379.29 382.4C1379.29 377.6 1380.94 373.4 1384.24 369.8C1387.54 366.2 1391.74 364.4 1396.84 364.4C1399.54 364.4 1402.24 365 1404.94 366.2C1414.54 370.4 1424.14 373.7 1433.74 376.1C1443.34 378.5 1454.14 379.7 1466.14 379.7C1499.44 379.7 1516.09 369.05 1516.09 347.75C1516.09 340.85 1512.19 335.6 1504.39 332C1496.89 328.4 1484.44 324.35 1467.04 319.85C1449.34 315.65 1434.64 311.3 1422.94 306.8C1411.54 302.3 1401.64 295.55 1393.24 286.55C1385.14 277.25 1381.09 265.1 1381.09 250.1C1381.09 229.1 1388.59 212 1403.59 198.8C1418.89 185.6 1440.64 179 1468.84 179C1491.94 179 1513.69 182.75 1534.09 190.25C1538.29 191.45 1541.44 193.7 1543.54 197C1545.94 200.3 1547.14 203.75 1547.14 207.35C1547.14 212.15 1545.34 216.35 1541.74 219.95C1538.44 223.55 1534.24 225.35 1529.14 225.35C1527.64 225.35 1525.69 225.05 1523.29 224.45C1505.89 219.05 1488.79 216.35 1471.99 216.35C1455.79 216.35 1443.04 219.35 1433.74 225.35C1424.74 231.05 1420.24 238.55 1420.24 247.85C1420.24 256.85 1424.44 263.45 1432.84 267.65C1441.24 271.85 1454.29 275.9 1471.99 279.8C1489.69 284.3 1504.09 288.8 1515.19 293.3C1526.29 297.5 1535.74 304.25 1543.54 313.55C1551.64 322.85 1555.69 335.3 1555.69 350.9C1555.69 370.1 1548.04 386 1532.74 398.6C1517.74 411.2 1496.44 417.5 1468.84 417.5ZM1685.05 417.5C1655.05 417.5 1627.75 410.75 1603.15 397.25C1598.05 393.65 1595.5 388.7 1595.5 382.4C1595.5 377.6 1597.15 373.4 1600.45 369.8C1603.75 366.2 1607.95 364.4 1613.05 364.4C1615.75 364.4 1618.45 365 1621.15 366.2C1630.75 370.4 1640.35 373.7 1649.95 376.1C1659.55 378.5 1670.35 379.7 1682.35 379.7C1715.65 379.7 1732.3 369.05 1732.3 347.75C1732.3 340.85 1728.4 335.6 1720.6 332C1713.1 328.4 1700.65 324.35 1683.25 319.85C1665.55 315.65 1650.85 311.3 1639.15 306.8C1627.75 302.3 1617.85 295.55 1609.45 286.55C1601.35 277.25 1597.3 265.1 1597.3 250.1C1597.3 229.1 1604.8 212 1619.8 198.8C1635.1 185.6 1656.85 179 1685.05 179C1708.15 179 1729.9 182.75 1750.3 190.25C1754.5 191.45 1757.65 193.7 1759.75 197C1762.15 200.3 1763.35 203.75 1763.35 207.35C1763.35 212.15 1761.55 216.35 1757.95 219.95C1754.65 223.55 1750.45 225.35 1745.35 225.35C1743.85 225.35 1741.9 225.05 1739.5 224.45C1722.1 219.05 1705 216.35 1688.2 216.35C1672 216.35 1659.25 219.35 1649.95 225.35C1640.95 231.05 1636.45 238.55 1636.45 247.85C1636.45 256.85 1640.65 263.45 1649.05 267.65C1657.45 271.85 1670.5 275.9 1688.2 279.8C1705.9 284.3 1720.3 288.8 1731.4 293.3C1742.5 297.5 1751.95 304.25 1759.75 313.55C1767.85 322.85 1771.9 335.3 1771.9 350.9C1771.9 370.1 1764.25 386 1748.95 398.6C1733.95 411.2 1712.65 417.5 1685.05 417.5ZM1876.56 518.75C1871.16 518.75 1866.51 516.8 1862.61 512.9C1859.01 509 1857.21 504.35 1857.21 498.95C1857.21 496.55 1857.66 494.15 1858.56 491.75L1887.81 416.6L1803.21 210.5C1802.01 207.5 1801.41 204.65 1801.41 201.95C1801.41 196.25 1803.36 191.45 1807.26 187.55C1811.16 183.35 1815.96 181.25 1821.66 181.25C1825.86 181.25 1829.61 182.45 1832.91 184.85C1836.51 187.25 1839.06 190.25 1840.56 193.85L1909.86 365.75L1980.51 194.75C1984.41 185.75 1990.71 181.25 1999.41 181.25C2005.11 181.25 2009.91 183.35 2013.81 187.55C2017.71 191.45 2019.66 196.25 2019.66 201.95C2019.66 204.65 2019.21 207.2 2018.31 209.6L1895.46 504.8C1891.26 514.1 1884.96 518.75 1876.56 518.75Z" fill="black"/>
</svg>
